<svg id="Layer_1" enable-background="new 0 0 512 512" height="512" viewBox="0 0 512 512" width="512" xmlns="http://www.w3.org/2000/svg"><g><g><g><g><g><g id="XMLID_1987_"><g id="XMLID_1988_"><g id="XMLID_1989_"><g id="XMLID_1990_"><g id="XMLID_1991_"><g id="XMLID_1992_"><g id="XMLID_1993_"><g id="XMLID_1994_"><g id="XMLID_1995_"><g id="XMLID_1996_"><g id="XMLID_1997_"><g id="XMLID_1998_"><g id="XMLID_1999_"><g id="XMLID_2030_"><g id="XMLID_2031_"><circle cx="256" cy="256" fill="#075799" r="256"/></g></g></g></g></g></g></g></g></g></g></g></g></g></g></g></g></g></g></g><path d="m201.742 444.1 67.558 67.558c130.798-6.695 235.663-111.56 242.358-242.358l-60.032-60.032z" fill="#003b60"/><path d="m209.269 451.627-148.896-148.896c-25.702-25.702-25.702-67.76 0-93.462l148.896-148.896c25.702-25.702 67.76-25.702 93.462 0l148.895 148.896c25.702 25.702 25.702 67.76 0 93.462l-148.895 148.896c-25.702 25.702-67.76 25.702-93.462 0z" fill="#ffdc6e"/><path d="m450.24 304.12-146.12 146.12c-13.232 13.232-30.676 19.843-48.12 19.843v-428.166c17.444 0 34.887 6.611 48.12 19.843l146.12 146.12c26.464 26.465 26.464 69.775 0 96.24z" fill="#ffb217"/><path d="m357.815 191.948-48.216-36.978-53.599 69.889-53.599-69.889-48.216 36.978 71.434 93.143v104.302h60.762v-104.302z" fill="#565656"/><path d="m357.81 191.95-71.43 93.14v104.3h-30.38v-164.53l53.6-69.89z" fill="#282828"/></g></svg>